<mxfile host="app.diagrams.net" modified="2023-07-14T07:45:15.722Z" agent="Mozilla/5.0 (Windows NT 10.0; Win64; x64) AppleWebKit/537.36 (KHTML, like Gecko) Chrome/114.0.0.0 Safari/537.36" etag="kjACtTtFcpyA6dEnadxy" version="21.6.2" type="github">
  <diagram name="第 1 页" id="TSSOjhJwj265NMnCWxh3">
    <mxGraphModel dx="1434" dy="708" grid="1" gridSize="10" guides="1" tooltips="1" connect="1" arrows="1" fold="1" page="1" pageScale="1" pageWidth="827" pageHeight="1169" math="0" shadow="0">
      <root>
        <mxCell id="0" />
        <mxCell id="1" parent="0" />
        <mxCell id="5q37xv5aRz3Y1Pb-v7Yq-1" value="服务提供方" style="rounded=0;whiteSpace=wrap;html=1;fillColor=#dae8fc;strokeColor=#6c8ebf;fontStyle=1;fontSize=16;" vertex="1" parent="1">
          <mxGeometry x="80" y="120" width="170" height="380" as="geometry" />
        </mxCell>
        <mxCell id="5q37xv5aRz3Y1Pb-v7Yq-2" value="&lt;b&gt;&lt;font style=&quot;font-size: 18px;&quot;&gt;网络通信&lt;/font&gt;&lt;/b&gt;" style="rounded=0;whiteSpace=wrap;html=1;fillColor=#f8cecc;strokeColor=#b85450;" vertex="1" parent="1">
          <mxGeometry x="80" y="520" width="680" height="50" as="geometry" />
        </mxCell>
        <mxCell id="5q37xv5aRz3Y1Pb-v7Yq-3" value="消费者业务代码" style="rounded=0;whiteSpace=wrap;html=1;fillColor=#d5e8d4;strokeColor=#82b366;fontStyle=1;fontSize=16;" vertex="1" parent="1">
          <mxGeometry x="590" y="120" width="170" height="290" as="geometry" />
        </mxCell>
        <mxCell id="5q37xv5aRz3Y1Pb-v7Yq-4" value="&lt;b style=&quot;font-size: 16px;&quot;&gt;Dubbo&lt;br&gt;服务引用代理&lt;/b&gt;" style="rounded=0;whiteSpace=wrap;html=1;fillColor=#d5e8d4;strokeColor=#82b366;" vertex="1" parent="1">
          <mxGeometry x="590" y="420" width="170" height="80" as="geometry" />
        </mxCell>
        <mxCell id="5q37xv5aRz3Y1Pb-v7Yq-6" value="" style="shape=flexArrow;endArrow=classic;startArrow=classic;html=1;rounded=0;fillColor=#ffe6cc;strokeColor=#d79b00;" edge="1" parent="1">
          <mxGeometry width="100" height="100" relative="1" as="geometry">
            <mxPoint x="270" y="470" as="sourcePoint" />
            <mxPoint x="580" y="470" as="targetPoint" />
          </mxGeometry>
        </mxCell>
        <mxCell id="5q37xv5aRz3Y1Pb-v7Yq-7" value="" style="shape=flexArrow;endArrow=classic;startArrow=classic;html=1;rounded=0;endWidth=10;endSize=4.66;startWidth=10;startSize=2.35;fillColor=#ffe6cc;strokeColor=#d79b00;" edge="1" parent="1">
          <mxGeometry width="100" height="100" relative="1" as="geometry">
            <mxPoint x="674.8125883137081" y="440.02" as="sourcePoint" />
            <mxPoint x="674.5" y="350" as="targetPoint" />
          </mxGeometry>
        </mxCell>
      </root>
    </mxGraphModel>
  </diagram>
</mxfile>
